<?xml version="1.0" encoding="utf-8"?>
<!-- Generator: Adobe Illustrator 25.2.1, SVG Export Plug-In . SVG Version: 6.00 Build 0)  -->
<svg version="1.1" id="Layer_1" xmlns="http://www.w3.org/2000/svg" xmlns:xlink="http://www.w3.org/1999/xlink" x="0px" y="0px"
	 viewBox="0 0 24 24" style="enable-background:new 0 0 24 24;" xml:space="preserve">
<style type="text/css">
	.st0{fill:#FFFFFF;}
</style>
<path class="st0" d="M0,4.5v14.8h7.2c0.7,0,1.3-0.1,1.9-0.2c0.6-0.2,1.2-0.4,1.7-0.8c0.5-0.3,0.9-0.8,1.2-1.3
	c0.3-0.5,0.4-1.2,0.4-1.9c0-0.9-0.2-1.7-0.7-2.4c-0.4-0.7-1.1-1.1-2-1.4c0.7-0.3,1.2-0.7,1.5-1.2c0.3-0.5,0.5-1.1,0.5-1.9
	c0-0.7-0.1-1.3-0.3-1.7c-0.2-0.5-0.6-0.8-1-1.1C10,5,9.5,4.8,8.9,4.7C8.3,4.5,7.7,4.5,7,4.5L0,4.5z M15.7,5.5v1.5h6V5.5L15.7,5.5z
	 M3.3,7h3c0.3,0,0.6,0,0.8,0.1c0.3,0,0.5,0.1,0.7,0.3c0.2,0.1,0.4,0.3,0.5,0.5c0.1,0.2,0.2,0.5,0.2,0.8C8.5,9.3,8.3,9.8,8,10
	c-0.4,0.3-0.9,0.4-1.4,0.4H3.3V7z M18.8,8.3c-0.8,0-1.6,0.1-2.2,0.4c-0.7,0.3-1.2,0.7-1.7,1.2c-0.5,0.5-0.9,1.1-1.1,1.8
	c-0.3,0.7-0.4,1.4-0.4,2.2c0,0.8,0.1,1.6,0.4,2.3c0.3,0.7,0.6,1.3,1.1,1.8c0.5,0.5,1,0.9,1.7,1.1c0.7,0.3,1.4,0.4,2.3,0.4
	c1.2,0,2.2-0.3,3.1-0.8c0.9-0.6,1.5-1.5,1.9-2.8h-2.6c-0.1,0.3-0.4,0.6-0.8,0.9c-0.4,0.3-0.9,0.4-1.5,0.4c-0.8,0-1.5-0.2-1.9-0.6
	c-0.4-0.4-0.7-1.2-0.7-2.1H24c0.1-0.8,0-1.6-0.2-2.4c-0.2-0.8-0.5-1.4-0.9-2c-0.4-0.6-1-1.1-1.7-1.4C20.5,8.4,19.7,8.3,18.8,8.3z
	 M18.7,10.5c0.7,0,1.3,0.2,1.7,0.6c0.4,0.4,0.6,0.9,0.7,1.7h-4.8c0-0.2,0.1-0.4,0.1-0.7c0.1-0.3,0.2-0.5,0.4-0.8
	c0.2-0.2,0.4-0.4,0.7-0.6C17.9,10.5,18.2,10.5,18.7,10.5L18.7,10.5z M3.3,12.7h3.5c0.7,0,1.3,0.2,1.7,0.5c0.4,0.3,0.6,0.9,0.6,1.6
	c0,0.4-0.1,0.7-0.2,1c-0.1,0.2-0.3,0.4-0.5,0.6c-0.2,0.1-0.5,0.2-0.8,0.3c-0.3,0.1-0.6,0.1-0.9,0.1H3.3L3.3,12.7z"/>
</svg>
